<svg height="64" width="64" xmlns="http://www.w3.org/2000/svg"><circle cx="32" cy="32" fill="#C75C5C" r="32"/><path d="M49.982 31.003c-.094-5.522-4.574-10.442-10.107-10.442-3.2 0-6.019 1.674-7.875 4.131-1.856-2.457-4.676-4.131-7.875-4.131-5.533 0-10.012 4.921-10.107 10.442H14c0 .034.007.065.007.099 0 .025-.007.049-.007.076 0 .155.038.272.045.421.495 14.071 17.813 19.84 17.813 19.84S49.43 45.677 49.95 31.621c.009-.157.05-.281.05-.443 0-.027-.007-.052-.007-.076 0-.036.007-.065.007-.099h-.018z" fill="#231F20" opacity=".2"/><path d="M49.982 29.003c-.094-5.522-4.574-10.442-10.107-10.442-3.2 0-6.019 1.674-7.875 4.131-1.856-2.457-4.676-4.131-7.875-4.131-5.533 0-10.012 4.921-10.107 10.442H14c0 .034.007.065.007.099 0 .025-.007.049-.007.076 0 .155.038.272.045.421.495 14.071 17.813 19.84 17.813 19.84S49.43 43.677 49.95 29.621c.009-.157.05-.281.05-.443 0-.027-.007-.052-.007-.076 0-.036.007-.065.007-.099h-.018z" fill="#FFF"/></svg>